<?xml version="1.0" encoding="UTF-8" standalone="no"?><!DOCTYPE svg PUBLIC "-//W3C//DTD SVG 1.1//EN" "http://www.w3.org/Graphics/SVG/1.1/DTD/svg11.dtd"><svg width="100%" height="100%" viewBox="0 0 500 500" version="1.1" xmlns="http://www.w3.org/2000/svg" xmlns:xlink="http://www.w3.org/1999/xlink" xml:space="preserve" xmlns:serif="http://www.serif.com/" style="fill-rule:evenodd;clip-rule:evenodd;stroke-linejoin:round;stroke-miterlimit:2;"><path d="M105.933,90.344l0,319.312l184.789,0l159.656,-159.656l-159.656,-159.656l-184.789,0Z" style="fill:#e6af2e;"/><path d="M287.766,30.255c0,-9.767 -7.929,-17.697 -17.696,-17.697l-161.6,0c-9.767,0 -17.697,7.93 -17.697,17.697l0,35.393c0,9.767 7.93,17.696 17.697,17.696l161.6,0c9.767,0 17.696,-7.929 17.696,-17.696l0,-35.393Z" style="fill:#191716;"/><path d="M287.766,434.352c0,-9.767 -7.929,-17.696 -17.696,-17.696l-161.6,0c-9.767,0 -17.697,7.929 -17.697,17.696l0,35.393c0,9.767 7.93,17.697 17.697,17.697l161.6,0c9.767,0 17.696,-7.93 17.696,-17.697l0,-35.393Z" style="fill:#191716;"/><circle cx="350.715" cy="250" r="29.382" style="fill:#191716;"/></svg>